<svg height="512pt" viewBox="0 0 512 512" width="512pt" xmlns="http://www.w3.org/2000/svg" xmlns:xlink="http://www.w3.org/1999/xlink"><linearGradient id="a" gradientUnits="userSpaceOnUse" x1="0" x2="512" y1="256" y2="256"><stop offset="0" stop-color="#00f38d"/><stop offset="1" stop-color="#009eff"/></linearGradient><path d="m512 256c0 141.386719-114.613281 256-256 256s-256-114.613281-256-256 114.613281-256 256-256 256 114.613281 256 256zm0 0" fill="url(#a)"/><g fill="#fff"><path d="m286.527344 294.785156c-21.824219 0-39.582032 17.757813-39.582032 39.582032v38.398437c0 21.828125 17.757813 39.585937 39.582032 39.585937 21.828125 0 39.585937-17.757812 39.585937-39.585937v-38.398437c0-21.824219-17.757812-39.582032-39.585937-39.582032zm-11.402344 39.582032c0-6.285157 5.117188-11.402344 11.402344-11.402344 6.289062 0 11.40625 5.117187 11.40625 11.402344v38.398437c0 6.289063-5.117188 11.40625-11.40625 11.40625-6.285156 0-11.402344-5.117187-11.402344-11.40625zm0 0"/><path d="m202.882812 346.402344h-22.179687v-51.617188h-28.175781v53.117188c0 14.710937 11.964844 26.679687 26.675781 26.679687h23.679687v37.769531h28.179688v-117.566406h-28.179688zm0 0"/><path d="m379.378906 99.648438h-246.753906c-21.652344 0-39.269531 17.617187-39.269531 39.269531v221.574219c0 21.652343 17.617187 39.269531 39.269531 39.269531h8.421875v-28.179688h-8.421875c-6.117188 0-11.089844-4.976562-11.089844-11.089843v-157.128907h268.929688v71.132813h28.179687v-135.578125c0-21.652344-17.617187-39.269531-39.265625-39.269531zm-246.753906 28.179687h246.753906c6.113282 0 11.085938 4.976563 11.085938 11.089844v36.269531h-268.929688v-36.269531c0-6.113281 4.972656-11.089844 11.089844-11.089844zm0 0"/><path d="m151.507812 165.597656c7.769532 0 14.089844-6.320312 14.089844-14.089844 0-7.769531-6.320312-14.089843-14.089844-14.089843-7.769531 0-14.089843 6.320312-14.089843 14.089843 0 7.769532 6.320312 14.089844 14.089843 14.089844zm0 0"/><path d="m195.570312 165.597656c7.769532 0 14.089844-6.320312 14.089844-14.089844 0-7.769531-6.320312-14.089843-14.089844-14.089843-7.769531 0-14.089843 6.320312-14.089843 14.089843 0 7.769532 6.320312 14.089844 14.089843 14.089844zm0 0"/><path d="m390.464844 346.402344h-22.179688v-51.617188h-28.175781v53.117188c0 14.710937 11.964844 26.679687 26.675781 26.679687h23.679688v37.769531h28.179687v-117.566406h-28.179687zm0 0"/></g></svg>